<?xml version="1.0" encoding="UTF-8" standalone="no"?><!DOCTYPE svg PUBLIC "-//W3C//DTD SVG 1.1//EN" "http://www.w3.org/Graphics/SVG/1.1/DTD/svg11.dtd"><svg width="100%" height="100%" viewBox="0 0 366 90" version="1.1" xmlns="http://www.w3.org/2000/svg" xmlns:xlink="http://www.w3.org/1999/xlink" xml:space="preserve" xmlns:serif="http://www.serif.com/" style="fill-rule:evenodd;clip-rule:evenodd;stroke-linejoin:round;stroke-miterlimit:2;"><g id="Large-and-Narrow---366px-X-90px-" serif:id="Large and Narrow  (366px X 90px)"><path id="Rounded-Rectangle-3" serif:id="Rounded Rectangle 3" d="M366,12l0,66c0,6.623 -5.377,12 -12,12l-342,0c-6.623,0 -12,-5.377 -12,-12l0,-66c0,-6.623 5.377,-12 12,-12l342,0c6.623,0 12,5.377 12,12Z" style="fill:#fde500;"/><path id="Shape-2" serif:id="Shape 2" d="M46,27.97c-9.942,-0 -18,6.255 -18,13.973c0,4.798 3.117,9.03 7.863,11.546l-1.997,7.33c-0.177,0.649 0.561,1.165 1.127,0.789l8.754,-5.805c0.738,0.071 1.489,0.113 2.253,0.113c9.941,-0 18,-6.257 18,-13.973c-0,-7.718 -8.059,-13.973 -18,-13.973" style="fill-opacity:0.9;"/><g id="카카오-로그인" serif:id="카카오 로그인" transform="matrix(30,0,0,30,289.677,56.9774)"></g><text x="127.887px" y="56.977px" style="font-family:'AppleSDGothicNeo-Medium', 'Apple SD Gothic Neo';font-weight:500;font-size:30px;fill:#191919;">카<tspan x="153.537px 179.187px 204.837px 212.427px 238.077px 263.727px " y="56.977px 56.977px 56.977px 56.977px 56.977px 56.977px ">카오 로그인</tspan></text></g></svg>